<?xml version="1.0" encoding="utf-8"?>
<!-- Generator: Adobe Illustrator 16.0.0, SVG Export Plug-In . SVG Version: 6.00 Build 0)  -->
<!DOCTYPE svg PUBLIC "-//W3C//DTD SVG 1.1//EN" "http://www.w3.org/Graphics/SVG/1.1/DTD/svg11.dtd">
<svg version="1.1" id="Layer_1" xmlns="http://www.w3.org/2000/svg" xmlns:xlink="http://www.w3.org/1999/xlink" x="0px" y="0px"
	 width="383px" height="92.577px" viewBox="0 0 383 92.577" enable-background="new 0 0 383 92.577" xml:space="preserve">
<g>
	<path fill="#156B36" d="M181.169,76.386c-0.324-0.395-0.725-0.701-1.196-0.911c-0.475-0.211-1.021-0.317-1.644-0.317
		c-0.621,0-1.197,0.119-1.728,0.358c-0.529,0.242-0.988,0.576-1.377,1.007s-0.691,0.943-0.911,1.537
		c-0.219,0.592-0.329,1.237-0.329,1.928c0,0.706,0.11,1.353,0.329,1.94c0.22,0.585,0.52,1.093,0.9,1.524
		c0.381,0.431,0.829,0.766,1.345,1.007c0.517,0.239,1.071,0.358,1.664,0.358c0.679,0,1.278-0.139,1.803-0.423
		c0.522-0.282,0.952-0.677,1.292-1.187l2.756,2.057c-0.636,0.89-1.441,1.546-2.416,1.971c-0.977,0.424-1.979,0.636-3.01,0.636
		c-1.173,0-2.254-0.184-3.242-0.553c-0.99-0.365-1.844-0.893-2.564-1.578c-0.722-0.685-1.283-1.517-1.686-2.489
		c-0.401-0.976-0.604-2.062-0.604-3.264s0.202-2.289,0.604-3.265c0.402-0.972,0.964-1.804,1.686-2.488
		c0.721-0.686,1.574-1.213,2.564-1.579c0.988-0.369,2.069-0.553,3.242-0.553c0.424,0,0.866,0.039,1.325,0.119
		c0.458,0.075,0.91,0.2,1.355,0.369c0.444,0.171,0.872,0.396,1.283,0.68c0.408,0.282,0.775,0.627,1.102,1.038L181.169,76.386z"/>
	<path fill="#156B36" d="M191.935,86.199h-0.042c-0.353,0.55-0.824,0.944-1.41,1.187c-0.586,0.239-1.204,0.359-1.854,0.359
		c-0.479,0-0.942-0.065-1.388-0.2c-0.445-0.136-0.837-0.337-1.176-0.604c-0.338-0.268-0.607-0.599-0.806-0.997
		c-0.197-0.396-0.297-0.855-0.297-1.375c0-0.596,0.11-1.098,0.329-1.506c0.22-0.408,0.516-0.751,0.89-1.018
		c0.374-0.268,0.802-0.478,1.282-0.626c0.481-0.149,0.979-0.258,1.495-0.328c0.516-0.071,1.031-0.113,1.547-0.127
		s0.991-0.021,1.43-0.021c0-0.566-0.201-1.015-0.604-1.346c-0.403-0.331-0.88-0.499-1.432-0.499c-0.522,0-0.998,0.108-1.43,0.33
		c-0.431,0.217-0.815,0.517-1.155,0.899l-1.695-1.738c0.593-0.551,1.286-0.964,2.078-1.24c0.79-0.274,1.609-0.412,2.458-0.412
		c0.933,0,1.698,0.115,2.298,0.348c0.601,0.235,1.082,0.576,1.442,1.028c0.36,0.452,0.61,1.007,0.752,1.665
		c0.142,0.656,0.213,1.416,0.213,2.278v5.234h-2.926V86.199z M191.15,82.978c-0.24,0-0.541,0.01-0.9,0.031
		c-0.36,0.021-0.708,0.083-1.039,0.18c-0.331,0.1-0.614,0.249-0.846,0.444c-0.235,0.2-0.351,0.475-0.351,0.828
		c0,0.381,0.161,0.663,0.486,0.849c0.325,0.184,0.663,0.273,1.018,0.273c0.311,0,0.612-0.043,0.902-0.125
		c0.288-0.086,0.546-0.207,0.772-0.363c0.226-0.154,0.404-0.352,0.54-0.592c0.134-0.239,0.201-0.522,0.201-0.848v-0.678H191.15z"/>
	<path fill="#156B36" d="M196.852,77.191h3.179v1.654h0.043c0.34-0.638,0.742-1.114,1.207-1.432
		c0.468-0.317,1.054-0.476,1.759-0.476c0.186,0,0.368,0.007,0.553,0.021c0.183,0.012,0.354,0.04,0.509,0.083v2.902
		c-0.226-0.069-0.448-0.122-0.667-0.158c-0.22-0.035-0.449-0.052-0.69-0.052c-0.607,0-1.088,0.082-1.44,0.254
		c-0.354,0.171-0.626,0.404-0.815,0.709c-0.191,0.305-0.316,0.669-0.371,1.094c-0.057,0.424-0.086,0.89-0.086,1.396v4.304h-3.179
		V77.191z"/>
	<path fill="#156B36" d="M205.265,73.949c0-0.509,0.182-0.943,0.542-1.302c0.359-0.363,0.795-0.543,1.302-0.543
		c0.509,0,0.943,0.18,1.304,0.543c0.36,0.358,0.54,0.792,0.54,1.302s-0.18,0.943-0.54,1.302c-0.36,0.362-0.795,0.541-1.304,0.541
		c-0.507,0-0.942-0.179-1.302-0.541C205.446,74.892,205.265,74.458,205.265,73.949z M205.52,77.191h3.18v10.301h-3.18V77.191z"/>
	<path fill="#156B36" d="M210.987,77.191h3.053v1.398h0.041c0.101-0.196,0.241-0.394,0.425-0.593
		c0.183-0.196,0.403-0.375,0.657-0.53c0.253-0.157,0.543-0.282,0.869-0.381c0.324-0.1,0.677-0.147,1.059-0.147
		c0.806,0,1.455,0.124,1.95,0.369c0.493,0.249,0.88,0.591,1.154,1.028c0.276,0.438,0.464,0.955,0.562,1.548
		c0.098,0.595,0.148,1.235,0.148,1.93v5.68h-3.18v-5.046c0-0.296-0.01-0.604-0.032-0.921c-0.021-0.316-0.084-0.61-0.189-0.88
		c-0.107-0.269-0.269-0.485-0.488-0.656c-0.219-0.172-0.533-0.254-0.943-0.254c-0.408,0-0.741,0.072-0.995,0.22
		c-0.256,0.149-0.448,0.35-0.583,0.595c-0.135,0.249-0.223,0.526-0.265,0.838c-0.042,0.311-0.064,0.635-0.064,0.976v5.129h-3.179
		V77.191z"/>
	<path fill="#156B36" d="M233.96,86.622c0,1.95-0.491,3.431-1.473,4.44s-2.477,1.515-4.482,1.515c-0.918,0-1.823-0.103-2.713-0.308
		c-0.891-0.204-1.709-0.604-2.458-1.196l1.76-2.629c0.494,0.41,1.014,0.734,1.557,0.976c0.543,0.239,1.141,0.36,1.79,0.36
		c0.977,0,1.692-0.236,2.153-0.711c0.458-0.473,0.688-1.077,0.688-1.812v-0.996h-0.043c-0.367,0.494-0.823,0.845-1.366,1.048
		c-0.545,0.206-1.057,0.308-1.536,0.308c-0.763,0-1.456-0.13-2.077-0.39c-0.622-0.263-1.155-0.63-1.6-1.104
		c-0.445-0.472-0.789-1.035-1.028-1.683c-0.24-0.65-0.36-1.365-0.36-2.143c0-0.678,0.108-1.341,0.329-1.99
		c0.218-0.651,0.529-1.223,0.932-1.718c0.403-0.493,0.894-0.894,1.473-1.197s1.236-0.455,1.971-0.455
		c0.452,0,0.866,0.047,1.24,0.147c0.375,0.099,0.711,0.224,1.008,0.381c0.296,0.156,0.55,0.329,0.763,0.521
		c0.212,0.189,0.381,0.377,0.508,0.562h0.042v-1.357h2.925V86.622z M225.949,82.277c0,0.341,0.063,0.66,0.191,0.967
		c0.127,0.303,0.307,0.57,0.539,0.804c0.233,0.233,0.502,0.42,0.806,0.562c0.304,0.141,0.64,0.21,1.008,0.21
		c0.354,0,0.685-0.069,0.994-0.21c0.312-0.142,0.583-0.328,0.816-0.562c0.234-0.233,0.413-0.501,0.541-0.804
		c0.128-0.307,0.19-0.626,0.19-0.967c0-0.339-0.062-0.658-0.19-0.964c-0.128-0.304-0.307-0.57-0.541-0.806
		c-0.233-0.232-0.505-0.42-0.816-0.562c-0.31-0.142-0.641-0.21-0.994-0.21c-0.368,0-0.704,0.068-1.008,0.21
		c-0.304,0.143-0.572,0.33-0.806,0.562c-0.232,0.235-0.412,0.502-0.539,0.806C226.013,81.619,225.949,81.938,225.949,82.277z"/>
	<path fill="#156B36" d="M243.877,79.735h-2.098v-2.544h2.098v-1.823c0-0.565,0.05-1.096,0.148-1.6
		c0.098-0.501,0.289-0.942,0.572-1.326c0.283-0.378,0.688-0.679,1.22-0.9c0.529-0.217,1.225-0.327,2.087-0.327
		c0.324,0,0.644,0.014,0.953,0.041c0.312,0.029,0.614,0.079,0.91,0.149l-0.147,2.693c-0.183-0.071-0.354-0.124-0.509-0.16
		s-0.331-0.053-0.529-0.053c-0.509,0-0.89,0.11-1.144,0.328c-0.256,0.22-0.383,0.669-0.383,1.347v1.631h2.353v2.544h-2.353v7.757
		h-3.179V79.735z"/>
	<path fill="#156B36" d="M250.235,82.341c0-0.819,0.149-1.561,0.445-2.224c0.297-0.665,0.704-1.234,1.22-1.706
		c0.516-0.474,1.123-0.838,1.82-1.092c0.701-0.254,1.445-0.381,2.237-0.381s1.537,0.126,2.235,0.381
		c0.7,0.253,1.308,0.618,1.823,1.092c0.516,0.472,0.923,1.041,1.22,1.706c0.296,0.663,0.444,1.404,0.444,2.224
		s-0.148,1.561-0.444,2.228c-0.297,0.662-0.704,1.23-1.22,1.703c-0.516,0.475-1.123,0.839-1.823,1.094
		c-0.698,0.252-1.443,0.38-2.235,0.38s-1.536-0.128-2.237-0.38c-0.697-0.255-1.305-0.619-1.82-1.094
		c-0.516-0.473-0.923-1.041-1.22-1.703C250.385,83.901,250.235,83.16,250.235,82.341z M253.414,82.341
		c0,0.777,0.223,1.406,0.667,1.885c0.445,0.481,1.071,0.722,1.877,0.722s1.43-0.24,1.875-0.722c0.445-0.479,0.668-1.107,0.668-1.885
		s-0.223-1.404-0.668-1.885c-0.445-0.481-1.069-0.721-1.875-0.721s-1.432,0.239-1.877,0.721
		C253.637,80.937,253.414,81.563,253.414,82.341z"/>
	<path fill="#156B36" d="M263.544,77.191h3.178v1.654h0.043c0.341-0.638,0.742-1.114,1.208-1.432
		c0.467-0.317,1.054-0.476,1.759-0.476c0.185,0,0.367,0.007,0.552,0.021c0.184,0.012,0.354,0.04,0.509,0.083v2.902
		c-0.226-0.069-0.448-0.122-0.667-0.158c-0.219-0.035-0.448-0.052-0.689-0.052c-0.607,0-1.089,0.082-1.44,0.254
		c-0.354,0.171-0.626,0.404-0.816,0.709c-0.191,0.305-0.315,0.669-0.37,1.094c-0.058,0.424-0.087,0.89-0.087,1.396v4.304h-3.178
		V77.191z"/>
	<path fill="#156B36" d="M285.459,79.735h-2.798v3.432c0,0.284,0.014,0.543,0.042,0.775c0.027,0.231,0.091,0.433,0.191,0.604
		c0.099,0.171,0.25,0.3,0.455,0.391c0.205,0.093,0.476,0.139,0.816,0.139c0.169,0,0.391-0.018,0.667-0.053
		c0.275-0.036,0.484-0.116,0.626-0.244v2.649c-0.354,0.128-0.721,0.212-1.103,0.255c-0.382,0.041-0.757,0.062-1.124,0.062
		c-0.536,0-1.031-0.056-1.483-0.17c-0.452-0.112-0.847-0.292-1.187-0.54c-0.34-0.246-0.604-0.568-0.795-0.964
		c-0.189-0.396-0.286-0.876-0.286-1.44v-4.896h-2.034v-2.544h2.034v-3.05h3.18v3.05h2.798V79.735z"/>
	<path fill="#156B36" d="M290.247,71.471v7.119h0.043c0.07-0.196,0.191-0.394,0.36-0.593c0.169-0.196,0.374-0.375,0.614-0.53
		c0.239-0.157,0.522-0.282,0.849-0.381c0.323-0.1,0.677-0.147,1.059-0.147c0.806,0,1.455,0.124,1.95,0.369
		c0.493,0.249,0.88,0.591,1.154,1.028c0.275,0.438,0.464,0.955,0.562,1.548c0.098,0.595,0.147,1.235,0.147,1.93v5.68h-3.179v-5.046
		c0-0.296-0.01-0.604-0.032-0.921c-0.021-0.316-0.084-0.61-0.19-0.88c-0.106-0.269-0.269-0.485-0.487-0.656
		c-0.219-0.172-0.533-0.254-0.943-0.254c-0.408,0-0.742,0.072-0.995,0.22c-0.256,0.149-0.448,0.35-0.583,0.595
		c-0.135,0.249-0.223,0.526-0.266,0.838c-0.041,0.311-0.063,0.635-0.063,0.976v5.129h-3.18V71.471H290.247z"/>
	<path fill="#156B36" d="M308.982,85.711c-0.51,0.65-1.153,1.15-1.929,1.506c-0.778,0.352-1.583,0.528-2.417,0.528
		c-0.791,0-1.536-0.128-2.236-0.38c-0.699-0.255-1.308-0.619-1.821-1.094c-0.518-0.473-0.922-1.041-1.22-1.703
		c-0.297-0.667-0.444-1.408-0.444-2.228s0.147-1.561,0.444-2.224c0.298-0.665,0.702-1.234,1.22-1.706
		c0.514-0.474,1.122-0.838,1.821-1.092c0.7-0.254,1.445-0.381,2.236-0.381c0.735,0,1.402,0.126,2.003,0.381
		c0.601,0.253,1.109,0.618,1.526,1.092c0.415,0.472,0.738,1.041,0.964,1.706c0.227,0.663,0.338,1.404,0.338,2.224v0.996h-7.374
		c0.127,0.607,0.403,1.094,0.825,1.452c0.425,0.36,0.947,0.541,1.57,0.541c0.522,0,0.964-0.117,1.324-0.351
		c0.36-0.232,0.675-0.532,0.943-0.901L308.982,85.711z M306.29,81.176c0.014-0.537-0.162-0.995-0.529-1.379
		c-0.368-0.378-0.843-0.571-1.42-0.571c-0.354,0-0.664,0.058-0.934,0.171c-0.269,0.111-0.498,0.256-0.688,0.434
		c-0.192,0.179-0.34,0.381-0.445,0.613c-0.106,0.234-0.167,0.479-0.181,0.732H306.29z"/>
	<path fill="#156B36" d="M318.198,72.486h10.067v3.052h-6.761v3.052h6.252v3.053h-6.252v5.85h-3.307V72.486z"/>
	<path fill="#156B36" d="M340.155,87.492h-3.051v-1.399h-0.043c-0.114,0.198-0.259,0.396-0.435,0.594s-0.392,0.374-0.646,0.53
		c-0.254,0.155-0.544,0.282-0.867,0.379c-0.326,0.101-0.681,0.149-1.062,0.149c-0.806,0-1.459-0.124-1.961-0.369
		c-0.5-0.249-0.89-0.59-1.164-1.027c-0.276-0.438-0.46-0.956-0.552-1.55c-0.092-0.593-0.139-1.235-0.139-1.928v-5.68h3.179v5.045
		c0,0.297,0.013,0.604,0.033,0.921c0.021,0.317,0.085,0.611,0.189,0.879c0.107,0.271,0.27,0.487,0.488,0.657
		c0.219,0.171,0.532,0.254,0.943,0.254c0.408,0,0.742-0.072,0.995-0.221c0.255-0.149,0.448-0.347,0.583-0.593
		c0.135-0.249,0.222-0.528,0.266-0.839c0.043-0.31,0.063-0.634,0.063-0.977v-5.127h3.179V87.492z"/>
	<path fill="#156B36" d="M349.417,79.735h-2.797v3.432c0,0.284,0.014,0.543,0.041,0.775c0.027,0.231,0.092,0.433,0.191,0.604
		c0.099,0.171,0.25,0.3,0.455,0.391c0.205,0.093,0.477,0.139,0.815,0.139c0.169,0,0.392-0.018,0.668-0.053
		c0.276-0.036,0.484-0.116,0.626-0.244v2.649c-0.354,0.128-0.722,0.212-1.103,0.255c-0.383,0.041-0.757,0.062-1.124,0.062
		c-0.536,0-1.031-0.056-1.483-0.17c-0.452-0.112-0.847-0.292-1.187-0.54c-0.34-0.246-0.604-0.568-0.795-0.964
		c-0.189-0.396-0.286-0.876-0.286-1.44v-4.896h-2.034v-2.544h2.034v-3.05h3.181v3.05h2.797V79.735z"/>
	<path fill="#156B36" d="M360.944,87.492h-3.051v-1.399h-0.043c-0.113,0.198-0.259,0.396-0.435,0.594s-0.391,0.374-0.647,0.53
		c-0.253,0.155-0.543,0.282-0.867,0.379c-0.326,0.101-0.679,0.149-1.061,0.149c-0.805,0-1.459-0.124-1.961-0.369
		c-0.5-0.249-0.89-0.59-1.164-1.027c-0.275-0.438-0.461-0.956-0.552-1.55c-0.091-0.593-0.138-1.235-0.138-1.928v-5.68h3.179v5.045
		c0,0.297,0.012,0.604,0.032,0.921c0.021,0.317,0.085,0.611,0.19,0.879c0.106,0.271,0.269,0.487,0.488,0.657
		c0.219,0.171,0.532,0.254,0.942,0.254c0.409,0,0.742-0.072,0.995-0.221c0.256-0.149,0.449-0.347,0.583-0.593
		c0.135-0.249,0.223-0.528,0.266-0.839c0.043-0.31,0.064-0.634,0.064-0.977v-5.127h3.178V87.492z"/>
	<path fill="#156B36" d="M363.191,77.191h3.18v1.654h0.043c0.34-0.638,0.741-1.114,1.207-1.432c0.468-0.317,1.054-0.476,1.759-0.476
		c0.185,0,0.367,0.007,0.552,0.021c0.183,0.012,0.354,0.04,0.51,0.083v2.902c-0.227-0.069-0.449-0.122-0.668-0.158
		c-0.22-0.035-0.448-0.052-0.69-0.052c-0.606,0-1.088,0.082-1.439,0.254c-0.354,0.171-0.626,0.404-0.815,0.709
		c-0.191,0.305-0.316,0.669-0.371,1.094c-0.057,0.424-0.086,0.89-0.086,1.396v4.304h-3.18V77.191z"/>
	<path fill="#156B36" d="M381.186,85.711c-0.509,0.65-1.151,1.15-1.928,1.506c-0.778,0.352-1.584,0.528-2.417,0.528
		c-0.792,0-1.536-0.128-2.236-0.38c-0.698-0.255-1.308-0.619-1.821-1.094c-0.518-0.473-0.923-1.041-1.22-1.703
		c-0.296-0.667-0.445-1.408-0.445-2.228s0.149-1.561,0.445-2.224c0.297-0.665,0.702-1.234,1.22-1.706
		c0.514-0.474,1.123-0.838,1.821-1.092c0.7-0.254,1.444-0.381,2.236-0.381c0.735,0,1.402,0.126,2.003,0.381
		c0.601,0.253,1.108,0.618,1.525,1.092c0.416,0.472,0.739,1.041,0.965,1.706c0.226,0.663,0.338,1.404,0.338,2.224v0.996h-7.375
		c0.128,0.607,0.404,1.094,0.827,1.452c0.424,0.36,0.946,0.541,1.568,0.541c0.523,0,0.965-0.117,1.325-0.351
		c0.36-0.232,0.674-0.532,0.943-0.901L381.186,85.711z M378.493,81.176c0.014-0.537-0.162-0.995-0.529-1.379
		c-0.367-0.378-0.842-0.571-1.419-0.571c-0.354,0-0.665,0.058-0.934,0.171c-0.269,0.111-0.498,0.256-0.688,0.434
		c-0.191,0.179-0.341,0.381-0.445,0.613c-0.106,0.234-0.167,0.479-0.182,0.732H378.493z"/>
</g>
<g>
	<g>
		<path fill="#8DC63F" d="M30.441,0c-0.047,0.024-0.09,0.051-0.136,0.076c0.11-0.003,0.219-0.01,0.329-0.01
			C30.568,0.045,30.51,0.021,30.441,0z"/>
		<path fill="none" d="M58.903,24.261c-0.495,3.152-1.381,6.172-2.613,9.013C57.522,30.434,58.41,27.414,58.903,24.261z"/>
		<path fill="#009444" d="M56.29,33.274c1.232-2.841,2.118-5.861,2.613-9.013c0.014-0.086,0.02-0.174,0.033-0.257
			c0.082-0.547,0.157-1.095,0.217-1.65c0.023-0.228,0.038-0.46,0.056-0.691c0.031-0.413,0.076-0.828,0.093-1.244
			c0.034-0.633,0.048-1.271,0.052-1.913C54.531,7.64,43.657,0.057,31.003,0.057c-0.123,0-0.245,0.009-0.369,0.009
			C44.807,4.839,55.218,17.764,56.29,33.274z"/>
		<path fill="#006838" d="M56.299,33.386c-0.002-0.042-0.005-0.074-0.009-0.112c-0.005,0.015-0.01,0.033-0.021,0.046
			C56.282,33.343,56.287,33.366,56.299,33.386z"/>
		<path d="M42.396,49.729c-1.146,0.749-2.335,1.438-3.567,2.056C40.096,51.22,41.289,50.533,42.396,49.729z"/>
		<path fill="#009444" d="M39.331,15.115c0.892,0.469,1.756,0.964,2.602,1.5C41.108,16.055,40.24,15.553,39.331,15.115z"/>
		<path d="M10.379,33.338c0,0.076,0.007,0.148,0.007,0.224c0-0.1-0.003-0.2-0.003-0.296C10.379,33.29,10.379,33.314,10.379,33.338z"
			/>
		<path fill="#39B54A" d="M17.887,55.545c-4.624-6.133-7.4-13.735-7.5-21.983c0-0.076-0.007-0.148-0.007-0.224
			c0-0.024,0-0.048,0.004-0.072c0.003-1.18,0.113-2.332,0.314-3.456l-0.221-0.197c-1.954-1.731-2.128-4.737-0.379-6.695
			c1.088-1.221,2.682-1.742,4.201-1.532c3.677-5.005,9.602-8.256,16.288-8.256c3.132,0,6.099,0.714,8.746,1.985
			c-5.172-2.708-11.053-4.243-17.296-4.243c-1.528,0-3.036,0.093-4.515,0.271c-4.752,0.574-9.227,2.045-13.254,4.23
			C1.556,19.979,0,25.335,0,31.063c0,8.953,3.798,17.018,9.865,22.674c3.646,3.401,8.109,5.93,13.066,7.264
			C21.076,59.354,19.38,57.528,17.887,55.545z"/>
		<path fill="#006838" d="M25.796,53.917c0-0.331-0.017-0.634-0.025-0.956c-8.763-2.141-15.284-9.999-15.384-19.399
			c0.1,8.248,2.877,15.85,7.5,21.983c1.493,1.983,3.189,3.809,5.044,5.457c0.959,0.255,1.94,0.452,2.932,0.621
			c0-0.13,0-0.255,0-0.393L25.796,53.917z"/>
		<path fill="#006838" d="M59.354,18.505c-0.004,0.642-0.018,1.28-0.052,1.913c-0.018,0.416-0.062,0.831-0.093,1.244
			c-0.018,0.231-0.033,0.464-0.056,0.691c-0.06,0.555-0.136,1.104-0.217,1.65c-0.013,0.083-0.019,0.171-0.033,0.257
			c-0.493,3.152-1.381,6.172-2.613,9.013c0.003,0.038,0.007,0.07,0.009,0.112c-0.012-0.021-0.017-0.043-0.029-0.065
			c-2.927,6.736-7.784,12.438-13.873,16.408c-1.107,0.804-2.301,1.491-3.567,2.056c-0.873,0.394-1.78,0.721-2.713,0.987
			c-0.012,0.386-0.035,0.759-0.035,1.166l-0.079,7.292c0,0.152,0,0.29,0,0.428c5.993-0.969,11.41-3.657,15.729-7.54
			c3.096-2.784,5.621-6.185,7.397-10.007c1.846-3.97,2.88-8.386,2.88-13.047C62.009,26.591,61.054,22.349,59.354,18.505z"/>
		<path fill="#009444" d="M27.708,32.29c0.842,0.822,1.959,1.369,3.222,1.369c1.238,0,2.332-0.521,3.163-1.304l10.981-9.8
			c0.569-0.504,1.226-0.83,1.913-1.016c-1.383-1.919-3.094-3.592-5.055-4.923c-0.846-0.537-1.71-1.032-2.602-1.5
			c-2.647-1.271-5.613-1.985-8.746-1.985c-6.687,0-12.611,3.251-16.288,8.256c0.894,0.126,1.765,0.504,2.491,1.15L27.708,32.29z
			 M30.946,14.667c3.52,0,6.376,2.856,6.376,6.381c0,3.517-2.856,6.375-6.376,6.375c-3.527,0-6.376-2.858-6.376-6.375
			C24.57,17.522,27.419,14.667,30.946,14.667z"/>
		<path fill="#009444" d="M20.748,38.753L10.697,29.81c-0.201,1.124-0.311,2.276-0.314,3.456c0,0.097,0.003,0.196,0.003,0.296
			c0.1,9.4,6.621,17.258,15.384,19.399C25.485,42.636,20.748,38.753,20.748,38.753z"/>
		<path fill="#009444" d="M50.795,33.338c0-1.011-0.081-2-0.224-2.97l-9.458,8.413c0,0-4.655,3.82-4.997,13.991
			c0.933-0.266,1.84-0.593,2.713-0.987c1.231-0.618,2.421-1.308,3.567-2.056C47.484,46.062,50.795,40.088,50.795,33.338z"/>
		<path fill="#8DC63F" d="M22.035,10.872c6.243,0,12.125,1.535,17.296,4.243c0.909,0.438,1.777,0.94,2.602,1.5
			c1.96,1.331,3.671,3.004,5.055,4.923c1.684-0.457,3.556,0.012,4.788,1.409c1.742,1.949,1.571,4.954-0.386,6.69l-0.817,0.729
			c0.143,0.969,0.224,1.959,0.224,2.97c0,6.75-3.312,12.725-8.399,16.391c6.089-3.97,10.946-9.672,13.873-16.408
			c0.01-0.014,0.016-0.031,0.021-0.046C55.218,17.764,44.807,4.839,30.634,0.065c-0.11,0-0.219,0.007-0.329,0.01
			C19.203,0.322,9.541,6.4,4.265,15.374c4.027-2.185,8.502-3.656,13.254-4.23C18.999,10.965,20.506,10.872,22.035,10.872z"/>
	</g>
	<g>
		<path fill="#156B36" d="M102.273,18.509H74.282c-0.299,0-0.543,0.244-0.543,0.539v41.727c0,0.297,0.245,0.542,0.543,0.542h9.194
			c0.298,0,0.543-0.245,0.543-0.542V45.045h14.77c0.3,0,0.543-0.238,0.543-0.534v-8.488c0-0.302-0.243-0.543-0.543-0.543H84.02
			v-7.402h18.254c0.3,0,0.545-0.241,0.545-0.542v-8.489C102.818,18.752,102.574,18.509,102.273,18.509z"/>
		<path fill="#156B36" d="M155.202,31.593h-7.238V18.996c0-0.3-0.238-0.543-0.542-0.543h-8.837c-0.3,0-0.542,0.243-0.542,0.543
			v12.597h-6.858h-0.859l-7.978-0.002c-0.303,0-0.544,0.243-0.544,0.543v14.26c0,0.914-0.059,1.801-0.171,2.635
			c-0.111,0.797-0.336,1.518-0.678,2.142c-0.329,0.607-0.791,1.08-1.414,1.442c-0.624,0.362-1.466,0.545-2.497,0.545
			c-1.014,0-1.785-0.2-2.294-0.597c-0.535-0.41-0.921-0.931-1.182-1.593c-0.274-0.69-0.439-1.462-0.495-2.284
			c-0.059-0.869-0.086-1.721-0.086-2.524V32.134c0-0.3-0.241-0.543-0.545-0.543h-8.835c-0.302,0-0.54,0.243-0.54,0.543v15.795
			c0,1.946,0.131,3.777,0.386,5.44c0.268,1.717,0.807,3.235,1.611,4.512c0.817,1.3,1.98,2.325,3.457,3.052
			c1.466,0.718,3.38,1.086,5.691,1.086c1.109,0,2.154-0.145,3.104-0.435c0.95-0.29,1.804-0.666,2.538-1.117
			c0.756-0.459,1.402-0.99,1.92-1.577c0.137-0.148,0.261-0.297,0.381-0.441v2.325c0,0.297,0.245,0.542,0.544,0.542h8.485
			c0.302,0,0.543-0.245,0.543-0.542V39.749h6.315v13.068c0,1.649,0.287,3.073,0.848,4.243c0.567,1.18,1.371,2.149,2.378,2.884
			c0.998,0.727,2.177,1.262,3.489,1.59c1.297,0.324,2.729,0.486,4.256,0.486c1.048,0,2.12-0.058,3.186-0.179
			c1.098-0.125,2.17-0.373,3.188-0.739c0.214-0.072,0.359-0.279,0.359-0.507V53.23c0-0.217-0.125-0.411-0.321-0.493
			c-0.193-0.09-0.424-0.055-0.583,0.089c-0.311,0.276-0.797,0.459-1.445,0.542c-0.741,0.093-1.343,0.145-1.79,0.145
			c-0.859,0-1.553-0.114-2.046-0.338c-0.467-0.207-0.803-0.493-1.019-0.866c-0.236-0.411-0.394-0.904-0.464-1.473
			c-0.073-0.624-0.114-1.324-0.114-2.086v-9.001h7.238c0.299,0,0.544-0.245,0.544-0.546v-7.068
			C155.746,31.834,155.501,31.593,155.202,31.593z"/>
		<path fill="#156B36" d="M188.273,31.593h-8.845c-0.297,0-0.538,0.241-0.538,0.541v14.26c0,0.918-0.061,1.804-0.172,2.635
			c-0.111,0.797-0.337,1.518-0.677,2.146c-0.329,0.604-0.793,1.077-1.416,1.438c-0.624,0.362-1.462,0.545-2.499,0.545
			c-1.012,0-1.783-0.2-2.29-0.593c-0.534-0.414-0.921-0.935-1.184-1.597c-0.271-0.69-0.438-1.456-0.493-2.284
			c-0.059-0.872-0.088-1.721-0.088-2.524V32.134c0-0.3-0.241-0.541-0.539-0.541h-8.841c-0.297,0-0.544,0.241-0.544,0.541v15.795
			c0,1.946,0.133,3.777,0.39,5.44c0.268,1.717,0.81,3.235,1.609,4.512c0.818,1.3,1.981,2.325,3.462,3.052
			c1.462,0.718,3.376,1.086,5.689,1.086c1.11,0,2.152-0.145,3.104-0.435c0.95-0.29,1.805-0.666,2.54-1.117
			c0.753-0.459,1.399-0.99,1.918-1.577c0.135-0.148,0.263-0.297,0.382-0.441v2.325c0,0.297,0.243,0.542,0.545,0.542h8.485
			c0.297,0,0.539-0.245,0.539-0.542V32.134C188.812,31.834,188.57,31.593,188.273,31.593z"/>
		<path fill="#156B36" d="M213.768,31.196c-0.468-0.124-0.977-0.21-1.517-0.252c-0.529-0.041-1.061-0.062-1.57-0.062
			c-2.068,0-3.817,0.478-5.198,1.42c-0.968,0.661-1.851,1.562-2.632,2.688v-2.856c0-0.3-0.242-0.541-0.54-0.541h-8.841
			c-0.301,0-0.54,0.241-0.54,0.541v28.641c0,0.297,0.239,0.542,0.54,0.542h8.841c0.298,0,0.54-0.245,0.54-0.542V48.808
			c0-1.39,0.077-2.673,0.232-3.815c0.143-1.093,0.467-2.045,0.952-2.821c0.479-0.763,1.15-1.342,2.049-1.773
			c0.896-0.435,2.17-0.65,3.767-0.65c0.637,0,1.254,0.043,1.83,0.14c0.581,0.093,1.179,0.234,1.781,0.423
			c0.167,0.052,0.343,0.021,0.483-0.08c0.136-0.105,0.221-0.267,0.221-0.44v-8.073C214.166,31.476,214,31.26,213.768,31.196z"/>
		<path fill="#156B36" d="M242.146,35.161c-1.211-1.371-2.705-2.44-4.438-3.175c-1.732-0.731-3.674-1.104-5.78-1.104
			c-2.254,0-4.407,0.369-6.401,1.095c-2.003,0.726-3.771,1.785-5.253,3.144c-1.48,1.359-2.662,3.015-3.516,4.919
			c-0.852,1.913-1.281,4.07-1.281,6.409c0,2.346,0.43,4.505,1.281,6.413c0.854,1.907,2.035,3.559,3.516,4.922
			c1.479,1.355,3.245,2.415,5.253,3.146c1.99,0.721,4.141,1.09,6.401,1.09c2.384,0,4.719-0.514,6.942-1.518
			c2.23-1.018,4.098-2.473,5.563-4.346c0.09-0.117,0.132-0.262,0.112-0.407c-0.022-0.146-0.1-0.276-0.215-0.362l-6.19-4.54
			c-0.116-0.083-0.262-0.12-0.401-0.097c-0.144,0.021-0.273,0.097-0.355,0.214c-0.706,0.962-1.539,1.755-2.48,2.37
			c-0.907,0.586-2.049,0.883-3.389,0.883c-1.612,0-2.926-0.445-4.011-1.373c-0.939-0.797-1.581-1.811-1.955-3.084h19.814
			c0.299,0,0.539-0.238,0.539-0.538v-2.773c0-2.321-0.325-4.465-0.97-6.357C244.284,38.183,243.346,36.525,242.146,35.161z
			 M228.717,38.76c0.68-0.285,1.481-0.431,2.382-0.431c1.473,0,2.636,0.469,3.562,1.428c0.802,0.833,1.231,1.79,1.311,2.911h-10.514
			c0.079-0.435,0.207-0.859,0.391-1.268c0.265-0.578,0.64-1.095,1.113-1.533C227.444,39.423,228.03,39.05,228.717,38.76z"/>
		<path fill="#156B36" d="M285.536,18.509h-27.992c-0.301,0-0.544,0.244-0.544,0.539v41.727c0,0.297,0.243,0.542,0.544,0.542h9.192
			c0.296,0,0.543-0.245,0.543-0.542V45.048h14.771c0.303,0,0.544-0.241,0.544-0.538v-8.488c0-0.302-0.241-0.543-0.544-0.543h-14.771
			v-7.402h18.257c0.297,0,0.541-0.241,0.541-0.542v-8.489C286.077,18.752,285.833,18.509,285.536,18.509z"/>
		<path fill="#156B36" d="M314.064,31.593h-8.834c-0.3,0-0.543,0.241-0.543,0.541v14.26c0,0.918-0.059,1.804-0.171,2.635
			c-0.11,0.797-0.338,1.518-0.678,2.146c-0.327,0.604-0.792,1.077-1.416,1.442c-0.619,0.359-1.464,0.542-2.501,0.542
			c-1.011,0-1.779-0.2-2.288-0.593c-0.533-0.414-0.923-0.935-1.182-1.597c-0.274-0.693-0.439-1.456-0.497-2.284
			c-0.056-0.872-0.086-1.721-0.086-2.524V32.134c0-0.3-0.241-0.541-0.54-0.541h-8.841c-0.3,0-0.539,0.241-0.539,0.541v15.795
			c0,1.946,0.13,3.777,0.386,5.44c0.266,1.717,0.809,3.235,1.612,4.512c0.818,1.3,1.984,2.325,3.458,3.052
			c1.463,0.718,3.378,1.086,5.692,1.086c1.109,0,2.151-0.145,3.103-0.435c0.952-0.29,1.809-0.666,2.542-1.117
			c0.752-0.459,1.4-0.99,1.917-1.577c0.136-0.148,0.263-0.297,0.384-0.441v2.325c0,0.297,0.239,0.542,0.539,0.542h8.482
			c0.302,0,0.545-0.245,0.545-0.542V32.134C314.609,31.834,314.366,31.593,314.064,31.593z"/>
		<path fill="#156B36" d="M345.511,35.028c-0.814-1.301-1.965-2.329-3.424-3.06c-1.454-0.719-3.359-1.086-5.667-1.086
			c-1.107,0-2.15,0.148-3.103,0.438c-0.947,0.287-1.803,0.663-2.544,1.116c-0.749,0.457-1.396,0.985-1.94,1.568
			c-0.124,0.134-0.243,0.269-0.358,0.409v-2.279c0-0.3-0.24-0.541-0.542-0.541h-8.485c-0.3,0-0.54,0.241-0.54,0.541v28.641
			c0,0.297,0.24,0.542,0.54,0.542h8.841c0.298,0,0.542-0.245,0.542-0.542V46.508c0-0.911,0.056-1.794,0.168-2.634
			c0.112-0.795,0.337-1.52,0.681-2.144c0.32-0.604,0.791-1.078,1.416-1.439c0.62-0.362,1.458-0.543,2.496-0.543
			c1.015,0,1.782,0.199,2.291,0.591c0.533,0.416,0.923,0.938,1.181,1.598c0.274,0.689,0.44,1.459,0.496,2.283
			c0.057,0.869,0.084,1.721,0.084,2.525v14.029c0,0.297,0.247,0.542,0.543,0.542h8.845c0.295,0,0.538-0.245,0.538-0.542V44.976
			c0-1.935-0.14-3.77-0.421-5.447C346.861,37.812,346.312,36.294,345.511,35.028z"/>
		<path fill="#156B36" d="M382.46,18.452h-8.841c-0.298,0-0.541,0.243-0.541,0.543v14.877c-0.934-0.945-2.044-1.649-3.31-2.106
			c-1.646-0.586-3.442-0.884-5.338-0.884c-2.125,0-4.052,0.446-5.735,1.328c-1.67,0.88-3.109,2.07-4.271,3.534
			c-1.153,1.46-2.057,3.152-2.682,5.027c-0.622,1.869-0.938,3.863-0.938,5.916c0,2.218,0.348,4.288,1.034,6.14
			c0.688,1.87,1.689,3.505,2.971,4.867c1.285,1.366,2.845,2.442,4.637,3.194c1.785,0.752,3.799,1.131,5.98,1.131
			c1.033,0,2.048-0.145,3.017-0.435c0.966-0.29,1.856-0.659,2.645-1.107c0.798-0.448,1.506-0.961,2.107-1.521
			c0.211-0.192,0.405-0.389,0.59-0.583v2.401c0,0.297,0.239,0.542,0.539,0.542h8.136c0.3,0,0.54-0.245,0.54-0.542V18.996
			C383,18.695,382.76,18.452,382.46,18.452z M373.785,46.449c0,2.042-0.559,3.636-1.709,4.878c-1.139,1.234-2.718,1.831-4.817,1.831
			c-2.105,0-3.677-0.597-4.819-1.831c-1.135-1.225-1.71-2.863-1.71-4.878c0-2.004,0.575-3.647,1.71-4.874
			c1.143-1.228,2.717-1.826,4.819-1.826c2.1,0,3.675,0.599,4.817,1.826C373.227,42.818,373.785,44.414,373.785,46.449z"/>
	</g>
</g>
</svg>
