<?xml version="1.0" encoding="utf-8"?>
<!-- Generator: Adobe Illustrator 16.0.0, SVG Export Plug-In . SVG Version: 6.00 Build 0)  -->
<!DOCTYPE svg PUBLIC "-//W3C//DTD SVG 1.1//EN" "http://www.w3.org/Graphics/SVG/1.1/DTD/svg11.dtd">
<svg version="1.1" id="Layer_1" xmlns="http://www.w3.org/2000/svg" xmlns:xlink="http://www.w3.org/1999/xlink" x="0px" y="0px"
	 width="148px" height="50.447px" viewBox="0 0 148 50.447" enable-background="new 0 0 148 50.447" xml:space="preserve">
<g>
	<g>
		<g>
			<g>
				<path fill="#EE3124" d="M45.637,46.566c-0.357,0.361-0.79,0.54-1.298,0.54c-0.509,0-0.94-0.179-1.3-0.54
					c-0.354-0.357-0.531-0.789-0.531-1.301c0-0.506,0.18-0.937,0.538-1.292c0.356-0.357,0.788-0.536,1.293-0.536
					c0.508,0,0.94,0.179,1.298,0.536c0.358,0.354,0.537,0.786,0.537,1.292C46.174,45.773,45.995,46.207,45.637,46.566
					 M43.223,44.152c-0.305,0.308-0.457,0.683-0.457,1.116c0,0.441,0.152,0.814,0.455,1.125c0.306,0.31,0.678,0.463,1.118,0.463
					c0.437,0,0.81-0.153,1.115-0.463c0.308-0.311,0.46-0.684,0.46-1.125c0-0.434-0.152-0.809-0.46-1.116
					c-0.308-0.311-0.68-0.465-1.115-0.465C43.901,43.687,43.532,43.841,43.223,44.152 M44.301,44.254
					c0.253,0,0.434,0.023,0.553,0.071c0.207,0.087,0.309,0.259,0.309,0.513c0,0.177-0.062,0.311-0.194,0.396
					c-0.069,0.043-0.166,0.077-0.291,0.096c0.158,0.024,0.272,0.091,0.346,0.198c0.072,0.106,0.109,0.211,0.109,0.312v0.148
					c0,0.047,0.002,0.099,0.006,0.148c0.002,0.054,0.009,0.089,0.017,0.104l0.01,0.024h-0.328c-0.002-0.005-0.002-0.011-0.007-0.018
					c-0.002-0.009-0.004-0.014-0.004-0.021l-0.01-0.065V46c0-0.23-0.062-0.386-0.188-0.46c-0.074-0.042-0.205-0.064-0.396-0.064
					h-0.279v0.79h-0.354v-2.011H44.301z M44.686,44.571c-0.087-0.052-0.231-0.075-0.429-0.075h-0.304v0.73h0.32
					c0.15,0,0.262-0.016,0.338-0.047c0.141-0.054,0.207-0.159,0.207-0.312C44.818,44.719,44.775,44.622,44.686,44.571"/>
			</g>
			<g>
				<path fill="#EE3124" d="M43.143,33.475c0.833-0.745,0.906-2.028,0.156-2.863c-0.743-0.836-2.026-0.908-2.86-0.161l-7.502,6.708
					c2.296,2.106,2.058,3.582,2.058,3.582L43.143,33.475z"/>
			</g>
			<g>
				<path fill="#EE3124" d="M28.904,32.917l-1.592-1.678l5.042-4.544c0.467-0.429,1.198-0.397,1.632,0.076
					c0.434,0.471,0.405,1.203-0.062,1.634L28.904,32.917z"/>
			</g>
		</g>
		<g>
			<g>
				<path fill="#EE3124" d="M32.082,36.265l-2.309-2.446l5.952-5.402c0.677-0.635,1.742-0.602,2.379,0.075
					c0.636,0.677,0.602,1.742-0.074,2.378L32.082,36.265z"/>
			</g>
			<g>
				<path fill="#EE3124" d="M15.552,25.326c2.222,0.176,3.501,0.321,5.098,1.251c1.305,0.759,2.471,1.978,3.576,3.171l0.046,0.047
					l0.912,0.989l7.925,8.336c0.4,0.455,0.643,1.056,0.643,1.709c0,1.436-1.162,2.598-2.597,2.598c-0.724,0-1.381-0.299-1.854-0.777
					l-7.106-7.479l-0.007-0.013c-0.115-0.117-0.274-0.192-0.449-0.192c-0.344,0-0.622,0.279-0.622,0.623
					c0,0.167,0.064,0.315,0.167,0.428l0.019,0.021l6.51,6.871c0.668,0.686,1.487,1.333,2.262,1.606
					c0.793,0.283,2.293,0.16,2.956-0.312c0.395-0.28,0.763-0.589,1.114-0.909L45.869,32.72l0.049-0.034
					c0.421-0.297,0.932-0.473,1.486-0.473c1.42,0,2.569,1.15,2.569,2.569c0,0.742-0.317,1.411-0.818,1.881l-8.216,7.399
					c-1.784,1.513-3.579,3.672-5.76,4.772c-5.962,2.997-11.438,1.468-15.774-1.756c-2.13-1.585-4.26-3.331-7.072-4.272
					c-1.354-0.454-4.886-0.551-7.79-0.546L0,42.265V25.308l0.003-0.079c0.469-6.889,3.284-13.085,7.611-17.62
					C12.08,2.922,18.205-0.003,24.951,0c6.956-0.003,13.248,3.106,17.751,8.051C47.208,13,49.969,19.798,49.97,27.276
					c0,0.789-0.003,1.379-0.064,2.15c-0.075,0.993-0.906,1.747-1.883,1.747c-0.049,0-0.1-0.003-0.151-0.005
					c-1.042-0.081-1.819-0.992-1.738-2.034c0.052-0.674,0.049-1.168,0.049-1.858c0.002-6.542-2.416-12.434-6.277-16.676
					c-3.871-4.239-9.139-6.814-14.953-6.816c-5.639,0.001-10.761,2.423-14.6,6.438c-3.67,3.846-6.118,9.15-6.561,15.101l1.443-0.002
					c0.224-5.342,2.367-10.175,5.733-13.733c3.557-3.766,8.513-6.113,13.98-6.113c5.469,0,10.423,2.347,13.98,6.113
					c3.562,3.762,5.752,8.952,5.752,14.661c0,0.647-0.026,1.288-0.081,1.917c-0.07,0.773-0.749,1.343-1.521,1.276
					c-0.772-0.066-1.344-0.748-1.277-1.519c0.049-0.551,0.074-1.107,0.074-1.675c0-4.987-1.912-9.484-4.985-12.733
					c-3.077-3.248-7.287-5.235-11.942-5.235s-8.865,1.986-11.942,5.235c-2.882,3.045-4.742,7.19-4.963,11.808h1.705
					c0.074-4.212,1.752-8.03,4.433-10.811c2.742-2.849,6.555-4.625,10.761-4.625s8.02,1.776,10.763,4.625
					c2.744,2.848,4.436,6.782,4.435,11.11c0.001,0.479-0.02,0.956-0.062,1.426c-0.053,0.61-0.59,1.061-1.201,1.009
					c-0.609-0.055-1.061-0.591-1.009-1.201c0.036-0.408,0.051-0.818,0.051-1.235c0-3.746-1.458-7.125-3.812-9.57
					c-2.357-2.444-5.59-3.945-9.164-3.946c-3.575,0.001-6.806,1.502-9.165,3.946c-2.287,2.377-3.736,5.641-3.812,9.271h1.761
					c0.137-6.284,5.075-11.379,11.221-11.383c6.225,0.004,11.266,5.382,11.277,11.777c0,0.505-0.409,0.914-0.914,0.914
					c-0.503,0-0.913-0.409-0.913-0.914c0-2.719-1.117-5.32-2.819-7.093c-1.708-1.771-4.045-2.855-6.631-2.858
					c-2.586,0.002-4.925,1.086-6.63,2.858c-1.651,1.716-2.696,4.068-2.762,6.686L15.552,25.326z"/>
			</g>
		</g>
		<g>
			<g>
				<path fill="#EE3124" d="M25.681,21.22c-0.173,0.162-0.397,0.27-0.652,0.27c-0.263,0-0.492-0.113-0.666-0.283l-2.254-2.012
					c-0.403-0.36-1.023-0.323-1.381,0.078c-0.362,0.404-0.326,1.024,0.077,1.382l2.121,1.887c0,0,1.042,0.846,1.042,3.129
					l0.014,1.51c0,0.215-0.001,0.391-0.001,0.541c-0.001,0.541,0.436,0.979,0.977,0.98h0.002h0.137h0.002
					c0.542-0.001,0.979-0.439,0.978-0.98c0-0.149-0.001-0.326-0.001-0.541l0.018-1.506c0-2.283,1.038-3.129,1.038-3.129l2.12-1.887
					c0.404-0.359,0.439-0.979,0.08-1.381c-0.358-0.406-0.979-0.44-1.383-0.08L25.681,21.22z"/>
			</g>
			<g>
				<path fill="#EE3124" d="M26.347,18.886c0,0.726-0.589,1.316-1.316,1.316s-1.316-0.591-1.316-1.316
					c0-0.728,0.589-1.316,1.316-1.316S26.347,18.159,26.347,18.886"/>
			</g>
		</g>
	</g>
	<g>
		<path d="M64.627,42.514c-0.301-0.424-0.836-0.625-1.383-0.625c-0.646,0-1.294,0.29-1.294,1.016c0,1.583,3.747,0.68,3.747,3.489
			c0,1.695-1.338,2.521-2.888,2.521c-0.981,0-1.94-0.301-2.587-1.071l1.059-1.025c0.346,0.524,0.938,0.825,1.562,0.825
			c0.646,0,1.383-0.356,1.383-1.082c0-1.729-3.747-0.735-3.747-3.557c0-1.628,1.45-2.387,2.911-2.387
			c0.825,0,1.65,0.234,2.264,0.814L64.627,42.514z"/>
		<path d="M70.271,47.978h-0.034c-0.379,0.603-1.003,0.869-1.717,0.869c-0.993,0-1.952-0.546-1.952-1.605
			c0-1.739,2.03-1.862,3.368-1.862h0.335v-0.145c0-0.658-0.514-1.004-1.227-1.004c-0.559,0-1.071,0.223-1.428,0.558l-0.703-0.702
			c0.592-0.603,1.428-0.859,2.275-0.859c2.286,0,2.286,1.65,2.286,2.409v3.077h-1.204V47.978z M70.193,46.317h-0.279
			c-0.735,0-2.007,0.055-2.007,0.825c0,0.489,0.502,0.701,0.937,0.701c0.914,0,1.35-0.479,1.35-1.227V46.317z"/>
		<path d="M72.804,43.361h1.339v0.848h0.021c0.29-0.613,0.881-0.981,1.584-0.981c0.167,0,0.323,0.034,0.479,0.079v1.293
			c-0.224-0.056-0.436-0.101-0.646-0.101c-1.261,0-1.438,1.06-1.438,1.35v2.865h-1.339V43.361z"/>
		<path d="M77.031,43.361h1.271v0.858h0.022c0.245-0.534,0.747-0.992,1.639-0.992c1.438,0,1.952,1.015,1.952,2.107v3.379h-1.339
			v-2.71c0-0.591-0.045-1.572-0.981-1.572c-0.881,0-1.227,0.647-1.227,1.36v2.922h-1.338V43.361z"/>
		<path d="M84.002,40.741c0.491,0,0.87,0.346,0.87,0.803s-0.379,0.803-0.87,0.803s-0.848-0.379-0.848-0.803
			S83.511,40.741,84.002,40.741z M83.344,43.361h1.339v5.353h-1.339V43.361z"/>
		<path d="M89.456,47.978h-0.033c-0.379,0.603-1.004,0.869-1.718,0.869c-0.992,0-1.951-0.546-1.951-1.605
			c0-1.739,2.029-1.862,3.367-1.862h0.335v-0.145c0-0.658-0.513-1.004-1.227-1.004c-0.558,0-1.071,0.223-1.428,0.558l-0.703-0.702
			c0.592-0.603,1.428-0.859,2.275-0.859c2.286,0,2.286,1.65,2.286,2.409v3.077h-1.204V47.978z M89.378,46.317h-0.279
			c-0.735,0-2.007,0.055-2.007,0.825c0,0.489,0.502,0.701,0.937,0.701c0.915,0,1.35-0.479,1.35-1.227V46.317z"/>
		<path d="M94.364,46.54H91.61v-1.138h2.754V46.54z"/>
		<path d="M95.514,40.819h1.404v6.623h3.357v1.271h-4.762V40.819z"/>
		<path d="M104.413,47.978h-0.033c-0.379,0.603-1.003,0.869-1.718,0.869c-0.992,0-1.951-0.546-1.951-1.605
			c0-1.739,2.03-1.862,3.367-1.862h0.335v-0.145c0-0.658-0.513-1.004-1.226-1.004c-0.559,0-1.071,0.223-1.428,0.558l-0.703-0.702
			c0.591-0.603,1.428-0.859,2.275-0.859c2.286,0,2.286,1.65,2.286,2.409v3.077h-1.205V47.978z M104.335,46.317h-0.278
			c-0.736,0-2.008,0.055-2.008,0.825c0,0.489,0.503,0.701,0.938,0.701c0.914,0,1.349-0.479,1.349-1.227V46.317z"/>
		<path d="M106.891,43.361h1.271v0.837h0.021c0.234-0.502,0.748-0.971,1.64-0.971c0.825,0,1.394,0.323,1.673,0.992
			c0.39-0.68,0.959-0.992,1.762-0.992c1.428,0,1.93,1.015,1.93,2.298v3.188h-1.338V45.68c0-0.668-0.201-1.249-0.993-1.249
			c-0.836,0-1.148,0.691-1.148,1.383v2.899h-1.338v-3.188c0-0.658-0.269-1.094-0.915-1.094c-0.881,0-1.227,0.647-1.227,1.36v2.922
			h-1.338V43.361z"/>
		<path d="M116.539,40.284h1.338v3.758h0.033c0.279-0.346,0.814-0.814,1.818-0.814c1.527,0,2.587,1.227,2.587,2.811
			c0,1.583-0.993,2.81-2.643,2.81c-0.748,0-1.45-0.289-1.841-0.937h-0.021v0.803h-1.271V40.284z M119.405,44.431
			c-0.981,0-1.573,0.77-1.573,1.606c0,0.836,0.592,1.605,1.573,1.605s1.572-0.77,1.572-1.605
			C120.978,45.201,120.387,44.431,119.405,44.431z"/>
		<path d="M122.829,44.499v-1.138h1.104v-1.55h1.338v1.55h1.473v1.138h-1.473v2.342c0,0.535,0.156,0.87,0.748,0.87
			c0.233,0,0.558-0.045,0.725-0.167v1.125c-0.279,0.135-0.747,0.179-1.06,0.179c-1.417,0-1.751-0.635-1.751-1.895v-2.454H122.829z"
			/>
		<path d="M130.324,43.227c1.618,0,2.911,1.127,2.911,2.811s-1.293,2.81-2.911,2.81c-1.616,0-2.91-1.126-2.91-2.81
			S128.708,43.227,130.324,43.227z M130.324,47.643c0.982,0,1.573-0.77,1.573-1.605c0-0.837-0.591-1.606-1.573-1.606
			c-0.98,0-1.572,0.77-1.572,1.606C128.752,46.874,129.344,47.643,130.324,47.643z"/>
		<path d="M134.374,43.361h1.271v0.858h0.022c0.245-0.534,0.747-0.992,1.64-0.992c1.438,0,1.95,1.015,1.95,2.107v3.379h-1.337v-2.71
			c0-0.591-0.045-1.572-0.982-1.572c-0.88,0-1.227,0.647-1.227,1.36v2.922h-1.338V43.361z"/>
	</g>
	<g>
		<g>
			<polygon fill="#5F6062" points="131.194,21.902 127.744,33.703 125.329,33.703 122.614,25.699 122.577,25.699 119.873,33.703 
				117.544,33.703 114.043,21.902 116.976,21.902 118.813,29.29 118.848,29.29 121.414,21.91 123.935,21.91 126.494,29.498 
				126.528,29.498 128.466,21.902 			"/>
		</g>
		<g>
			<path fill="#5F6062" d="M70.704,28.955c0,2.901-1.772,5.058-5.178,5.058c-3.423,0-5.195-2.156-5.195-5.058v-7.058h2.71v6.953
				c0,1.512,1.044,2.659,2.485,2.659c1.424,0,2.468-1.147,2.468-2.659v-6.953h2.71V28.955z"/>
		</g>
		<g>
			<path fill="#5F6062" d="M71.95,25.255h2.503v1.146h0.035c0.347-0.661,1.198-1.356,2.467-1.356c2.642,0,3.127,1.738,3.127,3.998
				v4.656h-2.606v-4.135c0-0.974-0.017-2.226-1.354-2.226c-1.355,0-1.564,1.061-1.564,2.156v4.204H71.95V25.255z"/>
		</g>
		<g>
			<path fill="#5F6062" d="M84.074,33.699h-2.605v-8.445h4.727v-3.36h2.606v3.36h2.291v2.085h-2.291v2.815
				c0,0.904,0.103,1.562,1.231,1.562c0.28,0,0.836-0.033,1.06-0.243v2.172c-0.572,0.208-1.217,0.261-1.823,0.261
				c-1.738,0-3.074-0.712-3.074-2.553v-4.015h-2.123L84.074,33.699z"/>
		</g>
		<g>
			<path fill="#5F6062" d="M99.799,32.239c-0.834,1.061-2.205,1.668-3.561,1.668c-2.607,0-4.691-1.737-4.691-4.431
				c0-2.693,2.084-4.431,4.691-4.431c2.431,0,3.961,1.738,3.961,4.431v0.818h-6.046c0.209,0.99,0.954,1.632,1.962,1.632
				c0.854,0,1.425-0.434,1.861-1.026L99.799,32.239z M97.594,28.521c0.017-0.869-0.661-1.601-1.6-1.601
				c-1.146,0-1.771,0.785-1.841,1.601H97.594z"/>
		</g>
		<g>
			<path fill="#5F6062" d="M110.034,33.698h-2.397v-1.109h-0.035c-0.399,0.606-1.409,1.318-2.59,1.318
				c-2.503,0-4.151-1.808-4.151-4.361c0-2.345,1.458-4.5,3.856-4.5c1.077,0,2.084,0.297,2.676,1.113h0.033v-4.259h2.608V33.698z
				 M105.551,27.338c-1.302,0-2.086,0.87-2.086,2.136c0,1.271,0.784,2.14,2.086,2.14c1.305,0,2.086-0.869,2.086-2.14
				C107.637,28.208,106.855,27.338,105.551,27.338"/>
		</g>
		<g>
			<path fill="#5F6062" d="M135.935,32.638H135.9c-0.573,0.905-1.616,1.269-2.676,1.269c-1.581,0-3.005-0.902-3.005-2.605
				c0-2.92,3.541-2.972,5.715-2.972c0-0.922-0.765-1.513-1.668-1.513c-0.853,0-1.564,0.384-2.12,1.009l-1.391-1.425
				c0.957-0.903,2.348-1.354,3.719-1.354c3.041,0,3.857,1.543,3.857,4.36v4.292h-2.397V32.638z M135.292,29.997
				c-0.799,0-2.573,0.073-2.573,1.219c0,0.624,0.662,0.921,1.236,0.921c1.024,0,1.979-0.54,1.979-1.584v-0.556H135.292z"/>
		</g>
		<g>
			<path fill="#5F6062" d="M144.177,35.072c-0.696,1.79-1.094,2.799-3.58,2.799c-0.659,0-1.321-0.105-1.946-0.312l0.347-2.141
				c0.4,0.178,0.783,0.262,1.217,0.262c1.182,0,1.372-0.503,1.739-1.424l0.192-0.487l-3.704-8.513h2.815l2.173,5.577h0.033
				l1.861-5.577H148L144.177,35.072z"/>
		</g>
		<g>
			<rect x="81.473" y="21.897" fill="#5F6062" width="2.606" height="2.148"/>
		</g>
	</g>
</g>
</svg>
